<?xml version="1.0" standalone="no"?>
<!DOCTYPE svg PUBLIC "-//W3C//DTD SVG 1.1//EN" "http://www.w3.org/Graphics/SVG/1.1/DTD/svg11.dtd" >
<svg xmlns="http://www.w3.org/2000/svg">
<metadata></metadata>
<defs>
<font id="fatfrankregular" horiz-adv-x="1559" >
<font-face units-per-em="2048" ascent="1536" descent="-512" />
<missing-glyph horiz-adv-x="341" />
<glyph horiz-adv-x="2048" />
<glyph horiz-adv-x="2048" />
<glyph unicode="&#xd;" horiz-adv-x="2048" />
<glyph unicode=" "  horiz-adv-x="341" />
<glyph unicode="&#x09;" horiz-adv-x="341" />
<glyph unicode="&#xa0;" horiz-adv-x="341" />
<glyph unicode="!" horiz-adv-x="588" d="M2 29v259q0 12 8.5 20.5t20.5 8.5h358q12 0 20.5 -8.5t8.5 -20.5v-259q0 -11 -9 -20t-20 -9h-358q-11 0 -20 9t-9 20zM2 425v913q-1 11 7.5 20t19.5 9h179h183q11 0 19 -9t8 -20v-913q0 -12 -9.5 -20.5t-21.5 -8.5h-179h-176q-12 0 -21 8.5t-9 20.5z" />
<glyph unicode="&#x22;" horiz-adv-x="904" d="M0 1082v249q0 14 10.5 24t25.5 10h247q14 0 24 -10t10 -24v-404q0 -14 -8.5 -20t-21.5 1l-256 125q-13 7 -22 21t-9 28zM416 1082v249q0 14 10.5 24t25.5 10h248q14 0 24 -10t10 -24v-404q0 -14 -9 -20t-22 1l-256 125q-13 7 -22 21t-9 28z" />
<glyph unicode="#" horiz-adv-x="1356" d="M0 278v248q0 14 10 24.5t24 10.5h174l28 91h-202q-14 0 -24 9t-10 23v248q0 15 10 26t24 11h301l66 212q4 13 17 22.5t27 9.5h253q14 0 21 -9.5t3 -22.5l-67 -212h101l67 212q4 13 17 22.5t27 9.5h253q14 0 20.5 -9.5t2.5 -22.5l-66 -212h75q14 0 24 -11t10 -26v-248 q0 -14 -10 -23t-24 -9h-174l-27 -91h201q14 0 24 -10.5t10 -24.5v-248q0 -14 -10 -24t-24 -10h-300l-65 -212q-4 -13 -17.5 -22.5t-27.5 -9.5h-252q-14 0 -21 9.5t-3 22.5l65 212h-101l-65 -212q-4 -13 -17 -22.5t-27 -9.5h-253q-14 0 -21 9.5t-3 22.5l65 212h-75 q-14 0 -24 10t-10 24zM529 561h101l27 91h-101z" />
<glyph unicode="$" horiz-adv-x="1167" d="M2 287q-4 11 1 21.5t16 14.5l310 109q27 9 43 -17v1q20 -28 49 -43t56.5 -16.5t52 0.5t39.5 7l15 5q6 2 24 12q28 22 33 57.5t-15 64.5q-25 33 -66 36h-118q-116 5 -212.5 66.5t-149.5 163t-48 217.5q7 126 78 226.5t182 146.5v121q0 11 9 20t20 9h292q11 0 20 -9t9 -20 v-108q160 -41 242 -133q8 -9 6.5 -21.5t-11.5 -19.5l-244 -201q-26 -18 -48 -9q-64 22 -102 22q-65 0 -65 -42q0 -17 12 -29q11 -14 27 -14h118q105 -5 200.5 -55t161.5 -138q76 -104 89.5 -230t-37.5 -242t-155 -192q-59 -44 -126 -65q-27 -9 -68 -18v-99q0 -11 -9 -20 t-20 -9h-292q-11 0 -20 9t-9 20v119q-199 74 -290 282z" />
<glyph unicode="%" horiz-adv-x="1302" d="M0 1133q0 95 68 163.5t164 68.5h524h147q14 0 20 -9.5t4 -22.5l-348 -1101h87q0 97 67.5 164.5t165.5 67.5q95 0 164 -67.5t69 -164.5q0 -96 -68.5 -164t-164.5 -68h-27h-396h-3h-243q-14 0 -20.5 9.5t-2.5 22.5l346 1101h-87q0 -96 -68.5 -165t-165.5 -69q-96 0 -164 69 t-68 165z" />
<glyph unicode="&#x26;" horiz-adv-x="1247" d="M0 433q0 168 125 301q-82 108 -82 237q0 175 141.5 299t341.5 124q187 0 326 -111q19 -16 -5 -41l-188 -187q-25 -25 -48 -11q-36 21 -85 21q-57 0 -97 -24.5t-40 -59.5q0 -34 36.5 -58.5t89.5 -26.5h603q11 0 19 -9t6 -20l-37 -294q0 -11 -10.5 -19t-22.5 -8h-37 q15 -54 15 -113q0 -94 -41.5 -179.5t-112 -147.5t-167.5 -98.5t-204 -36.5q-143 0 -264 62t-191.5 168.5t-70.5 231.5zM355 427q0 -50 49.5 -84t121.5 -34q71 0 120.5 34t49.5 84t-49.5 84.5t-120.5 34.5q-72 0 -121.5 -34.5t-49.5 -84.5z" />
<glyph unicode="'" horiz-adv-x="488" d="M0 1082v249q0 14 10.5 24t25.5 10h247q14 0 24 -10t10 -24v-404q0 -14 -8.5 -20t-21.5 1l-256 125q-13 7 -22 21t-9 28z" />
<glyph unicode="(" horiz-adv-x="669" d="M0 681q0 194 68 381q65 171 190 312q3 3 8.5 10t9.5 10l222 -222q-87 -94 -135.5 -221t-48.5 -270q0 -142 48.5 -268t135.5 -222l-222 -222q-4 4 -9 11t-9 10q-126 141 -190 314q-68 184 -68 377z" />
<glyph unicode=")" horiz-adv-x="669" d="M0 191q87 96 135.5 222t48.5 268q0 143 -48.5 270t-135.5 221l222 222q4 -3 10.5 -10.5t8.5 -9.5q123 -139 189 -312q68 -187 68 -381q0 -193 -68 -377q-65 -175 -189 -314q-3 -4 -9 -11t-10 -10z" />
<glyph unicode="*" horiz-adv-x="1005" d="M1 448q0 14 9 25l183 182l-181 181q-10 10 -10 24t10 24l176 176q9 9 23.5 9.5t25.5 -9.5l181 -181l181 181q11 10 24 10t24 -10l176 -174q9 -11 9.5 -25t-9.5 -25l-181 -181l182 -182q10 -11 10 -25t-11 -25l-174 -176q-11 -9 -25 -9t-25 9l-181 183l-182 -183 q-10 -9 -25 -8.5t-25 10.5l-176 176q-9 9 -9 23z" />
<glyph unicode="+" horiz-adv-x="1071" d="M0 531v247q0 14 10 25t24 11h256v256q0 14 10 24t24 10h248q14 0 25 -10t11 -24v-256h257q14 0 24 -11t10 -25v-247q0 -14 -10 -24t-24 -10h-257v-258q0 -14 -11 -24t-25 -10h-248q-14 0 -24 10t-10 24v258h-256q-14 0 -24 10t-10 24z" />
<glyph unicode="," horiz-adv-x="488" d="M0 34v249q0 14 10.5 24t25.5 10h247q14 0 24 -10t10 -24v-404q0 -14 -8.5 -20t-21.5 1l-256 125q-13 7 -22 21t-9 28z" />
<glyph unicode="-" horiz-adv-x="860" d="M0 532v248q0 14 10 25t24 11h621q14 0 24 -11t10 -25v-248q0 -14 -10 -24t-24 -10h-621q-14 0 -24 10t-10 24z" />
<glyph unicode="." horiz-adv-x="488" d="M0 34v248q0 14 10 24.5t24 10.5h249q14 0 24 -10.5t10 -24.5v-248q0 -14 -10 -24t-24 -10h-249q-14 0 -24 10t-10 24z" />
<glyph unicode="/" horiz-adv-x="750" d="M2 3l426 1359q4 13 17.5 22.5t27.5 9.5h252q14 0 21 -9.5t3 -22.5l-426 -1359q-4 -13 -17.5 -22.5t-27.5 -9.5h-252q-14 0 -21 9.5t-3 22.5z" />
<glyph unicode="0" horiz-adv-x="1448" d="M0 684q0 145 55 276.5t147.5 226.5t219.5 151t266 56q188 0 347.5 -95t252.5 -258.5t93 -356.5q0 -194 -93 -358t-252.5 -259.5t-347.5 -95.5q-139 0 -266 56.5t-219.5 152t-147.5 227.5t-55 277zM389 684q0 -76 31 -146q24 -62 77 -115q44 -44 95 -61q43 -22 96 -22 t100 22q51 18 94 61q54 52 74 115q34 61 34 146q0 82 -34 151q-21 59 -74 107q-46 46 -94 67q-58 18 -100 18q-44 0 -96 -18q-48 -20 -95 -67q-51 -48 -77 -107q-31 -80 -31 -151z" />
<glyph unicode="1" horiz-adv-x="733" d="M2 1009q-5 7 1 15l190 316q16 25 44 25h299q11 0 19 -9t8 -20v-1307q0 -11 -8 -20t-19 -9h-350q-14 0 -22.5 8.5t-8.5 20.5v944q0 11 -9 20t-20 9h-107q-12 0 -17 7z" />
<glyph unicode="2" horiz-adv-x="1138" d="M0 864q5 51 7 70q24 146 114 258.5t223 165.5t277 30q143 -24 253 -115.5t161 -227t27 -282.5q-18 -107 -73.5 -198.5t-138.5 -153.5v-1l-70 -53q-16 -9 0 -9h259q13 0 22 -8t9 -19v-292q0 -12 -9.5 -20.5t-21.5 -8.5h-960q-12 0 -21 8.5t-9 20.5v241q0 2 6 6l568 437 q54 40 65 110q11 69 -29 124q-37 53 -99 63q-59 10 -113 -29q-55 -42 -65 -109v-3q0 -2 -0.5 -4t-0.5 -3q-5 -24 -33 -24h-299h-20q-23 0 -29 26z" />
<glyph unicode="3" horiz-adv-x="1121" d="M0 401q5 24 31 24h297q20 0 30 -29q11 -42 58.5 -69.5t109.5 -27.5q72 0 122 35.5t50 85.5q0 46 -48.5 81t-117.5 37q-6 0 -10 3l-1 2q-2 -1 -2 1l-241 190q-21 17 -21 32.5t21 44.5l152 191h-322q-12 0 -21.5 9.5t-9.5 21.5v302q0 25 27 30h850q13 0 22 -8.5t9 -21.5 v-207q0 -6 -9 -20l-179 -224q-15 -20 -14 -38.5t17 -28.5q116 -61 184.5 -165t68.5 -227q0 -127 -71 -234t-192 -168.5t-264 -61.5q-138 0 -256 58.5t-190.5 159.5t-79.5 222z" />
<glyph unicode="4" horiz-adv-x="1134" d="M0 329v217q0 33 14 55l368 773q5 11 17.5 15t22.5 -1l269 -134q11 -5 15 -15.5t-1 -19.5l-253 -535q-5 -10 -0.5 -17.5t17.5 -7.5h190v198q0 11 8.5 19t21.5 8h349q13 0 21 -8t8 -19v-828q0 -12 -8.5 -20.5t-20.5 -8.5h-349q-13 0 -21.5 9t-8.5 20v270h-630 q-11 0 -20 9.5t-9 20.5z" />
<glyph unicode="5" horiz-adv-x="1184" d="M2 435q-2 11 4 20t20 9h320q22 0 26 -19q11 -49 63.5 -80.5t124.5 -31.5q77 0 131.5 38t54.5 93q0 54 -54.5 92t-131.5 38q-50 0 -79 -12q-19 -4 -36 3l-326 145q-20 8 -20 36v260v338q0 12 8.5 21t20.5 9h387h471q12 0 20.5 -9t8.5 -21v-308q0 -12 -8.5 -21t-20.5 -9 h-442q-11 0 -20 -9t-9 -20v-16q0 -17 4.5 -23t19.5 -6h16h5q150 0 278 -65t203 -177.5t75 -245.5q0 -134 -75 -247.5t-203 -179.5t-278 -66q-147 0 -273 62t-202 168.5t-83 233.5z" />
<glyph unicode="6" horiz-adv-x="1141" d="M14 396q-46 217 68 406l375 580q3 4 9 7t12 0l266 -172q17 -11 4 -29l-93 -149q151 -35 261.5 -147.5t143.5 -271.5q32 -145 -11.5 -283t-148.5 -236t-246 -130q-144 -30 -280 16t-232.5 154.5t-127.5 254.5zM386 476q14 -70 71 -106q51 -36 116 -24q63 17 94 69 q39 54 24 124q-19 74 -71 106q-49 37 -117 26q-67 -15 -95 -72q-38 -53 -22 -123z" />
<glyph unicode="7" horiz-adv-x="1041" d="M0 1031v304q0 13 9 21.5t20 8.5h916q11 0 19.5 -9t8.5 -21v-219q0 -26 -14 -56l-526 -1077q-5 -11 -17 -15t-23 1l-270 133q-11 5 -15.5 17.5t0.5 22.5l407 836q5 10 0 17t-17 7h-469q-11 0 -20 9t-9 20z" />
<glyph unicode="8" horiz-adv-x="1119" d="M0 433q0 173 126 299q-82 105 -82 237q0 116 64.5 214t175.5 154.5t242 56.5t241.5 -56.5t175 -154.5t64.5 -214q0 -132 -82 -237q126 -126 126 -299q0 -94 -41.5 -179.5t-112 -147.5t-167.5 -98.5t-204 -36.5q-142 0 -263 62t-192 168.5t-71 231.5zM369 433 q0 -45 46 -77t111 -32q66 0 111.5 32t45.5 77q0 46 -45.5 78.5t-111.5 32.5q-65 0 -111 -32.5t-46 -78.5zM406 969q0 -31 35 -53t85 -22t85.5 22t35.5 53q0 33 -35.5 56t-85.5 23t-85 -23t-35 -56z" />
<glyph unicode="9" horiz-adv-x="1153" d="M14 739q-32 145 12 282t150.5 234t251.5 126q143 31 280.5 -14.5t234.5 -152.5t129 -251q46 -219 -72 -407l-377 -578q-5 -13 -19 -5l-269 174q-14 8 -7 27l97 147q-152 33 -264.5 146t-146.5 272zM389 817q14 -71 72 -104q17 -15 48 -23.5t68 -0.5q57 10 97 69 q37 57 22 124q-15 65 -73 104q-54 38 -116 21q-61 -10 -97 -67q-38 -62 -21 -123z" />
<glyph unicode=":" horiz-adv-x="488" d="M0 34v248q0 14 10 24.5t24 10.5h249q14 0 24 -10.5t10 -24.5v-248q0 -14 -10 -24t-24 -10h-249q-14 0 -24 10t-10 24zM0 717v247q0 14 10 24t24 10h249q14 0 24 -10t10 -24v-247q0 -15 -10 -25.5t-24 -10.5h-249q-14 0 -24 10.5t-10 25.5z" />
<glyph unicode=";" horiz-adv-x="578" d="M0 34v249q0 14 10.5 24t25.5 10h247q14 0 24 -10t10 -24v-404q0 -14 -8.5 -20t-21.5 1l-256 125q-13 7 -22 21t-9 28zM0 717v247q0 14 11 24t25 10h249q14 0 23 -10t9 -24v-247q0 -15 -9 -25.5t-23 -10.5h-249q-14 0 -25 10.5t-11 25.5z" />
<glyph unicode="&#x3c;" horiz-adv-x="856" d="M3 655q0 1 1 4t1 5q2 0 2 2q6 9 7 10l174 174l1 2l263 262q10 10 25 10t25 -10l174 -175q10 -11 10 -24t-10 -24l-241 -241l241 -239q10 -11 10 -25t-10 -24l-176 -174q-10 -10 -24 -10t-24 10l-438 438q-1 0 -2 1t-2 1q-9 16 -7 27z" />
<glyph unicode="=" horiz-adv-x="860" d="M0 328v247q0 14 10 25t24 11h621q14 0 24 -11t10 -25v-247q0 -14 -10 -24t-24 -10h-621q-14 0 -24 10t-10 24zM0 734v247q0 14 10 25t24 11h621q14 0 24 -11t10 -25v-247q0 -14 -10 -24t-24 -10h-621q-14 0 -24 10t-10 24z" />
<glyph unicode="&#x3e;" horiz-adv-x="858" d="M4 386q0 14 10 24l240 240l-240 239q-10 11 -10 25t10 25l175 174q11 11 24 11t24 -11l439 -439q1 0 1.5 -1t1.5 -1q9 -16 7 -27q0 -1 -1 -3.5t-1 -4.5q-1 0 -1 -2q-6 -9 -7 -10l-174 -174l-2 -2l-263 -263q-11 -10 -25 -10t-24 10l-174 176q-10 10 -10 24z" />
<glyph unicode="?" horiz-adv-x="1155" d="M0 922q4 108 60 208v-2q46 87 121 149.5t162.5 92t185.5 25t188 -46.5q92 -43 159.5 -119t99.5 -166t29 -191t-46 -194q-43 -90 -116 -157t-169 -103q-34 -10 -54 -49v-2q-16 -26 -38 -26h-350q-11 0 -19 8t-8 20q13 145 102 262t229 169q37 14 53 52q19 37 3 70 q-10 38 -49 56q-42 20 -72 2q-40 -12 -56 -48q-2 -3 -2 -10v-2l-2 -4q-7 -25 -32 -25h-350q-13 0 -21 9.5t-8 21.5zM201 26v213q0 11 8 18.5t18 7.5h357q9 0 16.5 -7.5t7.5 -18.5v-213q0 -11 -7.5 -18.5t-16.5 -7.5h-357q-10 0 -18 7.5t-8 18.5z" />
<glyph unicode="A" horiz-adv-x="1447" d="M2 27l568 1311q5 11 17.5 19t23.5 8h157q11 0 23.5 -8t17.5 -19l567 -1311q2 -5 2 -10t-2 -9q-6 -8 -17 -8h-350q-11 0 -23.5 8t-17.5 18l-33 70q-13 25 -41 25h-409q-13 0 -25.5 -7.5t-17.5 -17.5l-31 -70q-5 -10 -17.5 -18t-23.5 -8h-350q-12 0 -17 8q-3 4 -3 9t2 10z M628 498q-2 -5 -2 -10t2 -9q6 -8 17 -8h89q11 0 16 8q3 4 3 10q0 4 -2 9l-50 106q-6 12 -11.5 12t-11.5 -12z" />
<glyph unicode="B" horiz-adv-x="1233" d="M0 29v1307q0 11 9 20t20 9h362h222q178 0 304 -126t126 -304q0 -92 -38 -176q127 -129 127 -310q0 -185 -132 -317t-317 -132h-2h-290h-362q-11 0 -20 9t-9 20zM391 406q0 -11 9 -20t20 -9h232h2q24 0 41 21.5t17 50.5t-17 49.5t-41 20.5h-2h-232q-11 0 -19 -8t-10 -19 v-86zM391 910q0 -11 9 -20t20 -9h164q17 0 28 15.5t11 38.5q0 22 -11.5 38.5t-27.5 16.5h-164q-11 -2 -19.5 -10t-9.5 -19v-51z" />
<glyph unicode="C" horiz-adv-x="1358" d="M0 683q0 193 95.5 357t259.5 259t357 95q144 0 273.5 -55t227.5 -153q8 -9 8 -20.5t-9 -18.5l-275 -220q-22 -18 -44 -2q-79 61 -181 61q-125 0 -214.5 -89t-89.5 -214t89.5 -214.5t214.5 -89.5q104 0 181 60q24 17 44 0l275 -222q10 -8 10 -18t-9 -22q-98 -98 -227 -152 t-274 -54t-276.5 56.5t-227 151.5t-152 227t-56.5 277z" />
<glyph unicode="D" horiz-adv-x="1303" d="M0 29v1307q0 11 9 20t20 9h379q174 0 318 -53.5t240 -146t148.5 -217t52.5 -265.5t-52.5 -265.5t-148.5 -217.5t-240 -146.5t-318 -53.5h-379q-11 0 -20 9t-9 20zM408 437q0 -11 8.5 -19t20.5 -10q87 4 151.5 27t100.5 61t53 84.5t17 102.5t-17 102t-53 84t-100.5 61 t-151.5 26q-11 0 -20 -8.5t-9 -19.5v-491z" />
<glyph unicode="E" horiz-adv-x="1134" d="M0 29v1307q0 11 9 20t20 9h906q11 0 20 -9t9 -20v-350q0 -12 -8.5 -20.5t-20.5 -8.5h-498q-11 0 -20 -9t-9 -20v-56q0 -11 9 -20t20 -9h322q11 0 19 -9t7 -20l-36 -292q-2 -13 -11.5 -21t-22.5 -8h-278q-11 0 -20 -9t-9 -20v-27q0 -11 9 -20t20 -9h498q11 0 20 -9t9 -20 v-350q0 -11 -9 -20t-20 -9h-906q-11 0 -20 9t-9 20z" />
<glyph unicode="F" horiz-adv-x="1100" d="M0 29v1307q0 11 9 20t20 9h906q11 0 20 -9t9 -20v-350q0 -12 -8.5 -20.5t-20.5 -8.5h-498q-11 0 -20 -9t-9 -20v-56q0 -11 9 -20t20 -9h322q11 0 19 -9t7 -20l-36 -292q-2 -13 -11.5 -21t-22.5 -8h-278q-11 0 -20 -9t-9 -20v-435q0 -11 -9 -20t-20 -9h-350q-11 0 -20 9 t-9 20z" />
<glyph unicode="G" horiz-adv-x="1462" d="M0 683q0 193 95.5 357t259.5 259t357 95q152 0 287 -60.5t235 -167.5l-319 -258q-89 78 -203 78q-125 0 -214.5 -89t-89.5 -214t89.5 -214.5t214.5 -89.5q94 0 172 54v31q0 11 -9 20t-20 9h-90q-10 0 -18.5 6.5t-10.5 15.5l-38 299q0 12 7 20.5t19 8.5h539 q12 0 20.5 -8.5t8.5 -20.5v-131v-190v-464q0 -13 -8 -21t-21 -8h-350q-96 -29 -201 -29q-145 0 -276.5 56.5t-227 151.5t-152 227t-56.5 277z" />
<glyph unicode="H" horiz-adv-x="1334" d="M0 29v1307q0 11 9 20t20 9h350q11 0 20 -9t9 -20v-450q0 -11 9 -20t20 -9h290q11 0 20 9t9 20v450q0 12 8.5 20.5t20.5 8.5h350q11 0 20 -9t9 -20v-1307q0 -11 -9 -20t-20 -9h-350q-12 0 -20.5 8.5t-8.5 20.5v449q0 12 -8.5 20.5t-20.5 8.5h-290q-12 0 -20.5 -8.5 t-8.5 -20.5v-449q0 -11 -9 -20t-20 -9h-350q-11 0 -20 9t-9 20z" />
<glyph unicode="I" horiz-adv-x="578" d="M0 29v1307q0 11 9 20t20 9h350q11 0 20 -9t9 -20v-1307q0 -11 -9 -20t-20 -9h-350q-11 0 -20 9t-9 20z" />
<glyph unicode="J" horiz-adv-x="1059" d="M0 0l44 408h313q51 0 87.5 36.5t36.5 87.5v833h408v-833q0 -145 -71 -267.5t-193.5 -193.5t-267.5 -71h-357z" />
<glyph unicode="K" horiz-adv-x="1239" d="M0 29v1307q0 11 9 20t20 9h350q11 0 20 -9t9 -20v-370q0 -7 2 -10.5t5.5 -1.5t7.5 9l244 377q7 10 20.5 17.5t24.5 7.5h394q13 0 17 -7.5t-3 -16.5l-388 -588q-7 -9 -7 -23.5t5 -24.5l419 -681q4 -6 4 -12q0 -3 -1 -5q-4 -7 -17 -7h-393q-31 0 -46 24l-273 437 q-4 7 -7.5 8.5t-5.5 -2t-2 -10.5v-428q0 -11 -9 -20t-20 -9h-350q-11 0 -20 9t-9 20z" />
<glyph unicode="L" horiz-adv-x="1099" d="M0 29v1307q0 11 9 20t20 9h350q11 0 20 -9t9 -20v-899q0 -11 9 -20t20 -9h498q11 0 19 -9t7 -20l-38 -350q-2 -11 -11.5 -20t-20.5 -9h-862q-11 0 -20 9t-9 20z" />
<glyph unicode="M" horiz-adv-x="1892" d="M0 29v1307q0 11 9 20t20 9h350q28 0 44 -25l424 -734q15 -23 29 0l423 734q16 25 44 25h350q11 0 20 -9t9 -20v-1307q0 -11 -9 -20t-20 -9h-350q-12 0 -20.5 8.5t-8.5 20.5v541q0 28 -15 5l-321 -549q-17 -26 -43 -26h-148q-11 0 -24.5 8t-18.5 18l-321 549 q-15 23 -15 -5v-541q0 -11 -9 -20t-20 -9h-350q-11 0 -20 9t-9 20z" />
<glyph unicode="N" horiz-adv-x="1336" d="M0 29v1307q0 11 9 20t20 9h350q28 0 44 -25l321 -550q3 -7 6.5 -8.5t5.5 2t2 10.5v542q0 11 9 20t20 9h350q12 0 20.5 -8.5t8.5 -20.5v-1307q0 -13 -8 -21t-21 -8h-350q-12 0 -25 7.5t-18 18.5l-321 549q-15 23 -15 -5v-541q0 -12 -8.5 -20.5t-20.5 -8.5h-350 q-12 0 -20.5 8.5t-8.5 20.5z" />
<glyph unicode="O" d="M0 683q0 193 95.5 357t259.5 259t357 95q145 0 276.5 -56.5t226.5 -151.5t151.5 -226.5t56.5 -276.5t-56.5 -277t-151.5 -227t-226.5 -151.5t-276.5 -56.5t-276.5 56.5t-227 151.5t-152 227t-56.5 277zM408 683q0 -125 89.5 -214.5t214.5 -89.5t214 89.5t89 214.5 t-89 214t-214 89t-214.5 -89t-89.5 -214z" />
<glyph unicode="P" horiz-adv-x="1221" d="M0 29v1307q0 11 9 20t20 9h379h198q145 0 267 -71t193 -193.5t71 -267.5t-71 -267.5t-193 -194t-267 -71.5h-169q-11 0 -20 -9t-9 -20v-242q0 -12 -8.5 -20.5t-20.5 -8.5h-350q-11 0 -20 9t-9 20zM408 737q0 -11 9 -20t20 -9h169q51 0 87 37t36 88t-36 87.5t-87 36.5 h-169q-13 -1 -21 -9.5t-8 -19.5v-191z" />
<glyph unicode="Q" horiz-adv-x="1563" d="M24 499q-24 91 -24 183t24 184q49 183 186 320q104 102 234 155t269 53q140 0 271 -53t233 -155q137 -137 185 -320q25 -92 25 -183.5t-25 -182.5q-48 -184 -185 -321q-135 -135 -323 -186l48 -48q9 -7 9 -19.5t-9 -21.5l-208 -206q-10 -10 -20 -10t-21 10l-483 481 q-137 137 -186 320zM410 683q0 -124 88 -215q89 -89 215 -89t215 89q88 88 88 214.5t-88 215.5q-91 88 -215 88t-215 -88q-88 -91 -88 -215z" />
<glyph unicode="R" horiz-adv-x="1239" d="M0 29v1307q0 11 8 19t19 10h381h198q145 0 267 -71t193 -193.5t71 -267.5q0 -123 -53 -232t-145 -183q23 -48 76 -63l3 -1l4.5 -1.5t5 -1.5t5 -2.5t4 -4.5t4 -6t2 -7.5t0.5 -9.5l-38 -348q-3 -26 -29 -26q-149 20 -265 116t-165 237h-109q-12 0 -20.5 -8.5t-8.5 -20.5 v-242q0 -13 -8 -21t-21 -8h-350q-12 0 -20.5 8.5t-8.5 20.5zM408 737q0 -11 9 -20t20 -9h169q51 0 87 37t36 88t-36 87.5t-87 36.5h-169q-11 0 -20 -9t-9 -20v-191z" />
<glyph unicode="S" horiz-adv-x="1167" d="M2 287q-2 5 -2 10t3 11q5 10 16 15l310 109q27 9 43 -17v1q20 -28 49 -43t56.5 -16t52 0.5t39.5 6.5l15 5q6 2 24 12q28 21 33 57q1 7 1 14q0 27 -16 51q-25 33 -66 36h-118q-117 5 -213 66.5t-149 162.5q-48 92 -48 198v20q7 132 87 236.5t202 147.5q77 24 164 24 q107 0 220.5 -42.5t178.5 -112.5q8 -9 6.5 -21.5t-11.5 -19.5l-244 -201q-26 -18 -48 -9h2q-66 22 -104 22q-65 0 -65 -42q0 -17 12 -29q11 -14 27 -14h118q105 -5 200.5 -55t161.5 -138q75 -104 89 -230q3 -26 3 -52q0 -98 -40 -190q-51 -116 -155 -192q-59 -44 -126 -65 q-68 -21 -140 -29q-31 -3 -64 -3q-44 -1 -92 5q-84 10 -158.5 42.5t-143 101t-110.5 167.5z" />
<glyph unicode="T" horiz-adv-x="1257" d="M0 986v350q0 11 9 20t20 9h1065q11 0 19 -9t7 -20l-38 -350q-1 -12 -10.5 -20.5t-21.5 -8.5h-255q-13 0 -21.5 -8.5t-8.5 -20.5v-899q0 -12 -8.5 -20.5t-20.5 -8.5h-350q-11 0 -20 9t-9 20v899q0 12 -8.5 20.5t-20.5 8.5h-299q-12 0 -20.5 8.5t-8.5 20.5z" />
<glyph unicode="U" horiz-adv-x="1336" d="M0 553v782q0 13 9 21.5t20 8.5h350q13 0 21 -8.5t8 -21.5v-782q0 -72 51.5 -123t124.5 -51q72 0 123 51t51 123v782q0 13 9 21.5t20 8.5h350q13 0 21 -8.5t8 -21.5v-782q0 -158 -78 -292t-212 -212t-292 -78q-159 0 -293.5 78t-212.5 212t-78 292z" />
<glyph unicode="V" horiz-adv-x="1380" d="M2 1338q-2 5 -2 9q0 6 4 10q6 8 18 8h377q13 0 24.5 -9t13.5 -20l194 -679q1 -7 4 -10t6.5 0t5.5 10l193 679q4 11 15 20t22 9h379q11 0 17 -8q5 -6 5 -14q0 -3 -1 -5l-412 -1311q-4 -11 -15 -19t-22 -8h-377q-13 0 -24.5 8t-15.5 19z" />
<glyph unicode="W" horiz-adv-x="1979" d="M2 1338q-2 5 -2 9q0 6 4 10q6 8 16 8h391q13 0 24.5 -8t15.5 -19l249 -812q12 -25 20 0q3 6 6.5 16t10.5 39.5t-1 48.5l-204 708q-4 11 2 19t19 8h314q12 0 23.5 -8t15.5 -19l57 -188q3 -12 10 -12q6 0 10 12l56 188q4 11 15.5 19t24.5 8h314q11 0 17.5 -8t2.5 -19 l-203 -708q-6 -25 -2.5 -48t10.5 -40l7 -16q2 -7 5.5 -10t7.5 0t6 10l249 812q13 27 41 27h391q11 0 17 -8q4 -5 4 -11q0 -4 -2 -8l-411 -1311q-4 -11 -16 -19t-24 -8h-382q-11 0 -24.5 8t-18.5 18l-82 189q-4 10 -13 10q-10 0 -14 -10l-82 -189q-5 -10 -18 -18t-24 -8h-383 q-13 0 -24 8t-15 19z" />
<glyph unicode="X" horiz-adv-x="1363" d="M3 26l282 629q13 27 0 53l-282 630q-2 6 -2.5 10.5t2.5 8.5q5 8 17 8h381q12 0 23.5 -8t15.5 -19l151 -350q2 -7 6 -10t8.5 0t7.5 10l141 350q4 11 16 19t24 8h378q12 1 18 -7q3 -4 3 -11q0 -4 -2 -9l-271 -628q-13 -28 0 -55l271 -628q2 -5 2 -9q1 -6 -3 -10 q-6 -8 -18 -8h-378q-12 0 -24 8t-16 19l-141 350q-3 7 -7.5 9.5t-8.5 0t-6 -9.5l-151 -350q-4 -11 -15.5 -19t-23.5 -8h-381q-10 0 -16 8q-3 4 -3 9q0 4 2 9z" />
<glyph unicode="Y" horiz-adv-x="1302" d="M0 954v381q0 13 9 21.5t20 8.5h350q11 0 20 -8.5t9 -21.5v-381q0 -73 51.5 -124.5t124.5 -51.5q72 0 123 51.5t51 124.5v381q0 13 9 21.5t20 8.5h350q13 0 21 -8.5t8 -21.5v-381q0 -186 -105 -335t-274 -211v-379q0 -13 -8 -21t-21 -8h-350q-12 0 -20.5 8.5t-8.5 20.5 v379q-169 62 -274 211t-105 335z" />
<glyph unicode="Z" horiz-adv-x="1278" d="M0 29v218q0 29 19 52l585 665q9 9 6 15.5t-16 6.5h-565q-12 0 -20.5 8.5t-8.5 20.5v321q0 11 9 20t20 9h1050q12 0 20.5 -8.5t8.5 -20.5v-321q0 -28 -19 -51l-493 -565l-16 -20h34h465q12 0 20.5 -8.5t8.5 -20.5v-321q0 -12 -8.5 -20.5t-20.5 -8.5h-1050q-11 0 -20 9 t-9 20z" />
<glyph unicode="[" horiz-adv-x="580" d="M0 29v2v205v894v206q0 11 9 20t20 9h2h205h146q11 0 19.5 -9t8.5 -20v-206q0 -12 -8.5 -20.5t-19.5 -8.5h-117v-836h117q11 0 19.5 -8.5t8.5 -20.5v-207q0 -11 -8.5 -20t-19.5 -9h-146h-205h-2q-7 0 -20 9q-9 13 -9 20z" />
<glyph unicode="\" horiz-adv-x="750" d="M2 1362q-4 13 3 22.5t21 9.5h252q14 0 27.5 -9.5t17.5 -22.5l426 -1359q4 -13 -3 -22.5t-21 -9.5h-252q-14 0 -27.5 9.5t-17.5 22.5z" />
<glyph unicode="]" horiz-adv-x="580" d="M0 29v207q0 12 8 20.5t19 8.5h118v836h-118q-11 0 -19 8.5t-8 20.5v206q0 11 8.5 20t18.5 9h147h205h2q11 0 20 -9t9 -20v-206v-894v-205v-2q0 -7 -9 -20q-13 -9 -20 -9h-2h-205h-147q-10 0 -18.5 9t-8.5 20z" />
<glyph unicode="^" horiz-adv-x="1117" d="M0 920q0 14 10 24l439 438q0 1 1 2t1 2q16 9 27 7q1 0 3.5 -1t4.5 -1q0 -2 2 -2q9 -6 10 -7l174 -174l2 -1l263 -263q11 -10 11 -25t-11 -25l-176 -174q-11 -10 -24 -10t-24 10l-240 241l-239 -241q-10 -10 -25 -10t-25 10l-174 176q-10 10 -10 24z" />
<glyph unicode="_" horiz-adv-x="1273" d="M0 34v248q0 14 10 24.5t24 10.5h1034q14 0 24.5 -10.5t10.5 -24.5v-248q0 -14 -10.5 -24t-24.5 -10h-1034q-14 0 -24 10t-10 24z" />
<glyph unicode="|" horiz-adv-x="488" d="M0 5v1355q0 14 10 24t24 10h248q14 0 24.5 -10t10.5 -24v-1355q0 -14 -10.5 -24t-24.5 -10h-248q-14 0 -24 10t-10 24z" />
<glyph unicode="&#xa1;" horiz-adv-x="599" d="M12 29v913q0 12 9.5 20.5t21.5 8.5h175h180q12 0 21 -8.5t9 -20.5v-913q0 -11 -8 -20t-19 -9h-183h-179q-11 0 -19.5 9t-7.5 20zM12 1079v259q0 11 9 20t20 9h358q11 0 20 -9t9 -20v-259q0 -12 -8.5 -20.5t-20.5 -8.5h-358q-12 0 -20.5 8.5t-8.5 20.5z" />
<glyph unicode="&#xa2;" horiz-adv-x="1406" d="M48 686q0 219 120.5 397t317.5 260v135q0 14 9.5 24t23.5 10h278q15 0 26.5 -10t11.5 -24v-84q247 -28 426 -204q8 -9 8 -21t-9 -19l-275 -220q-22 -18 -45 -2q-80 62 -181 62q-125 0 -214 -89.5t-89 -214.5t89 -214.5t214 -89.5q104 0 181 60q24 17 45 0l275 -222 q18 -15 1 -39q-178 -178 -426 -203v-84q0 -14 -11.5 -24t-26.5 -10h-278q-14 0 -23.5 10t-9.5 24v135q-197 80 -317.5 258.5t-120.5 398.5z" />
<glyph unicode="&#xa3;" horiz-adv-x="1099" d="M0 507v350q0 11 9 20t20 9h87q64 215 244 356.5t410 151.5q11 0 20 -9t9 -20v-350q0 -11 -8 -20t-21 -10q-118 -11 -197 -99h132q11 0 20 -9t9 -20v-350q0 -11 -9 -20t-20 -9h-210v-41q0 -11 9 -20t20 -9h498q11 0 19 -9t7 -20l-38 -350q-2 -11 -11.5 -20t-20.5 -9h-862 q-11 0 -20 9t-9 20v449h-58q-11 0 -20 9t-9 20z" />
<glyph unicode="&#xa5;" horiz-adv-x="1302" d="M0 1072v263q0 13 9 21.5t20 8.5h350q11 0 20 -8.5t9 -21.5v-263q0 -72 51 -123t123 -51q73 0 124.5 51t51.5 123v263q0 13 9 21.5t20 8.5h350q13 0 21 -8.5t8 -21.5v-263q0 -186 -105 -335t-274 -211v-40h104q11 0 20 -9t9 -20v-310q0 -11 -9 -20t-20 -9h-104v-89 q0 -13 -8 -21t-21 -8h-350q-12 0 -20.5 8.5t-8.5 20.5v89h-104q-11 0 -20 9t-9 20v310q0 11 9 20t20 9h104v40q-169 62 -274 211t-105 335z" />
<glyph unicode="&#xad;" horiz-adv-x="860" d="M0 532v248q0 14 10 25t24 11h621q14 0 24 -11t10 -25v-248q0 -14 -10 -24t-24 -10h-621q-14 0 -24 10t-10 24z" />
<glyph unicode="&#xb1;" horiz-adv-x="1071" d="M0 126v248q0 14 10 25t24 11h833q14 0 24 -11t10 -25v-248q0 -14 -10 -24t-24 -10h-833q-14 0 -24 10t-10 24zM0 790v248q0 14 10 24.5t24 10.5h256v256q0 14 10 24.5t24 10.5h248q14 0 25 -10.5t11 -24.5v-256h257q14 0 24 -10.5t10 -24.5v-248q0 -14 -10 -24t-24 -10 h-257v-258q0 -14 -11 -24t-25 -10h-248q-14 0 -24 10t-10 24v258h-256q-14 0 -24 10t-10 24z" />
<glyph unicode="&#xbf;" horiz-adv-x="1155" d="M0 493.5q3 101.5 46 194.5q42 89 115.5 156t169.5 103q34 11 55 50v1q16 26 37 26h350q11 0 19 -7.5t8 -19.5q-13 -145 -102 -262.5t-229 -169.5q-38 -14 -53 -51q-19 -37 -3 -70q10 -39 50 -57q40 -19 71 -1q41 12 57 47q1 1 1 11v1l2 4q7 25 32 25h350q13 0 21 -9 t8 -21q-4 -108 -60 -208v1q-46 -87 -121 -149.5t-162.5 -92t-185.5 -25t-188 46.5q-92 43 -159.5 119t-99.5 166t-29 191.5zM398 1126v214q0 11 7.5 18t16.5 7h356q10 0 18 -7t8 -18v-214q0 -11 -8 -18t-18 -7h-356q-9 0 -16.5 7t-7.5 18z" />
<glyph unicode="&#xc0;" horiz-adv-x="1447" d="M2 27l568 1311q5 11 17.5 19t23.5 8h157q11 0 23.5 -8t17.5 -19l567 -1311q5 -11 -0.5 -19t-16.5 -8h-350q-11 0 -23.5 8t-17.5 18l-33 70q-13 25 -41 25h-409q-13 0 -25.5 -7.5t-17.5 -17.5l-31 -70q-5 -10 -17.5 -18t-23.5 -8h-350q-12 0 -17 7.5t-1 19.5zM338.5 1704 q4.5 8 18.5 8h220q34 0 56 -26l215 -264q9 -11 5 -19.5t-18 -8.5h-280q-14 0 -30 9t-23 22l-161 258q-7 13 -2.5 21zM628 498q-5 -11 0.5 -19t16.5 -8h89q11 0 16 8t1 19l-50 106q-11 23 -23 0z" />
<glyph unicode="&#xc1;" horiz-adv-x="1447" d="M2 27l568 1311q5 11 17.5 19t23.5 8h157q11 0 23.5 -8t17.5 -19l567 -1311q5 -11 -0.5 -19t-16.5 -8h-350q-11 0 -23.5 8t-17.5 18l-33 70q-13 25 -41 25h-409q-13 0 -25.5 -7.5t-17.5 -17.5l-31 -70q-5 -10 -17.5 -18t-23.5 -8h-350q-12 0 -17 7.5t-1 19.5z M527.5 1402.5q-4.5 8.5 4.5 19.5l216 264q22 26 56 26h220q14 0 18.5 -8t-3.5 -21l-160 -258q-7 -13 -23 -22t-30 -9h-280q-14 0 -18.5 8.5zM628 498q-5 -11 0.5 -19t16.5 -8h89q11 0 16 8t1 19l-50 106q-11 23 -23 0z" />
<glyph unicode="&#xc2;" horiz-adv-x="1447" d="M2 27l568 1311q5 11 17.5 19t23.5 8h157q11 0 23.5 -8t17.5 -19l567 -1311q5 -11 -0.5 -19t-16.5 -8h-350q-11 0 -23.5 8t-17.5 18l-33 70q-13 25 -41 25h-409q-13 0 -25.5 -7.5t-17.5 -17.5l-31 -70q-5 -10 -17.5 -18t-23.5 -8h-350q-12 0 -17 7.5t-1 19.5z M302.5 1402.5q-4.5 8.5 4.5 19.5l215 264q9 11 26 18.5t31 7.5h220q34 0 56 -26l215 -264q9 -11 4.5 -19.5t-18.5 -8.5h-279q-34 0 -60 26l-4 3q-11 11 -25 11t-24 -11l-4 -3q-26 -26 -59 -26h-280q-14 0 -18.5 8.5zM628 498q-5 -11 0.5 -19t16.5 -8h89q11 0 16 8t1 19 l-50 106q-11 23 -23 0z" />
<glyph unicode="&#xc3;" horiz-adv-x="1447" d="M2 27l568 1311q5 11 17.5 19t23.5 8h157q11 0 23.5 -8t17.5 -19l567 -1311q5 -11 -0.5 -19t-16.5 -8h-350q-11 0 -23.5 8t-17.5 18l-33 70q-13 25 -41 25h-409q-13 0 -25.5 -7.5t-17.5 -17.5l-31 -70q-5 -10 -17.5 -18t-23.5 -8h-350q-12 0 -17 7.5t-1 19.5zM267.5 1457 q-2.5 9 8.5 18l260 220q26 21 61 15l108 -20q13 -3 24 5l5 1q29 19 63 14l275 -51q14 -2 16.5 -11t-8.5 -18l-259 -220q-11 -9 -29.5 -13.5t-32.5 -2.5l-107 19l2 2q-14 3 -28 -5l-3 -4q-27 -18 -63 -12l-275 52q-15 2 -17.5 11zM628 498q-5 -11 0.5 -19t16.5 -8h89 q11 0 16 8t1 19l-50 106q-11 23 -23 0z" />
<glyph unicode="&#xc4;" horiz-adv-x="1447" d="M2 27l568 1311q5 11 17.5 19t23.5 8h157q11 0 23.5 -8t17.5 -19l567 -1311q5 -11 -0.5 -19t-16.5 -8h-350q-11 0 -23.5 8t-17.5 18l-33 70q-13 25 -41 25h-409q-13 0 -25.5 -7.5t-17.5 -17.5l-31 -70q-5 -10 -17.5 -18t-23.5 -8h-350q-12 0 -17 7.5t-1 19.5zM287 1428 v250q0 14 10 24t24 10h247q14 0 25 -10t11 -24v-250q0 -14 -11 -24t-25 -10h-247q-14 0 -24 10t-10 24zM628 498q-5 -11 0.5 -19t16.5 -8h89q11 0 16 8t1 19l-50 106q-11 23 -23 0zM773 1428v250q0 14 10.5 24t25.5 10h247q14 0 24.5 -10t10.5 -24v-250q0 -14 -10.5 -24 t-24.5 -10h-247q-15 0 -25.5 10t-10.5 24z" />
<glyph unicode="&#xc5;" horiz-adv-x="1448" d="M2.5 8q-4.5 8 0.5 19l514 1183q-51 39 -81 98.5t-30 125.5q0 116 83.5 198.5t199.5 82.5q117 0 201.5 -82.5t84.5 -198.5q0 -66 -30 -125.5t-80 -98.5l514 -1183q4 -11 -1.5 -19t-17.5 -8h-351q-11 0 -23.5 7.5t-17.5 16.5l-31 72q-15 25 -41 25h-411q-26 0 -41 -25 l-33 -72q-5 -9 -17.5 -16.5t-23.5 -7.5h-350q-13 0 -17.5 8zM629.5 479.5q4.5 -8.5 17.5 -8.5h89q11 0 16 8t1 19l-50 106q-12 21 -25 0l-48 -106q-5 -10 -0.5 -18.5z" />
<glyph unicode="&#xc6;" horiz-adv-x="1824" d="M2 27l568 1311q5 11 17.5 19t23.5 8h1012q13 0 22 -9t9 -20v-350q0 -13 -9 -21t-22 -8h-497q-11 0 -20 -9t-9 -20v-56q0 -11 9 -20t20 -9h323q11 0 19 -9t7 -20l-38 -292q-2 -12 -11 -20.5t-21 -8.5h-279q-11 0 -20 -9t-9 -20v-27q0 -11 9 -20t20 -9h497q13 0 22 -9 t9 -20v-350q0 -11 -9 -20t-22 -9h-904q-11 0 -20.5 9t-9.5 20v92h-204q-13 0 -25.5 -7.5t-17.5 -17.5l-31 -70q-5 -10 -17.5 -18t-23.5 -8h-350q-12 0 -17 7.5t-1 19.5zM628 497q-5 -10 0.5 -18t16.5 -8h15q11 0 20 9t9 20v104q0 26 -11 2z" />
<glyph unicode="&#xc7;" horiz-adv-x="1358" d="M0 683q0 193 95.5 357t259.5 259t357 95q144 0 273.5 -55t227.5 -153q8 -9 8 -20.5t-9 -18.5l-275 -220q-22 -18 -44 -2q-79 61 -181 61q-125 0 -214.5 -89t-89.5 -214t89.5 -214.5t214.5 -89.5q104 0 181 60q24 17 44 0l275 -222q19 -15 1 -40q-98 -98 -227 -152 t-274 -54t-276.5 56.5t-227 151.5t-152 227t-56.5 277zM608 41v212q0 11 5.5 15t14.5 -3l200 -164q19 -17 19 -43v-166q0 -25 -19 -42l-200 -164q-9 -7 -14.5 -4t-5.5 14v212q0 28 18 46l2 2q9 8 9 19t-9 18l-2 4q-18 18 -18 44z" />
<glyph unicode="&#xc8;" horiz-adv-x="1134" d="M0 29v1307q0 11 9 20t20 9h906q11 0 20 -9t9 -20v-350q0 -12 -8.5 -20.5t-20.5 -8.5h-498q-11 0 -20 -9t-9 -20v-56q0 -11 9 -20t20 -9h322q11 0 19 -9t7 -20l-36 -292q-2 -13 -11.5 -21t-22.5 -8h-278q-11 0 -20 -9t-9 -20v-27q0 -11 9 -20t20 -9h498q11 0 20 -9t9 -20 v-350q0 -11 -9 -20t-20 -9h-906q-11 0 -20 9t-9 20zM153.5 1704q4.5 8 18.5 8h221q34 0 56 -26l215 -264q9 -11 4.5 -19.5t-18.5 -8.5h-280q-14 0 -30 9t-23 22l-160 258q-8 13 -3.5 21z" />
<glyph unicode="&#xc9;" horiz-adv-x="1134" d="M0 29v1307q0 11 9 20t20 9h906q11 0 20 -9t9 -20v-350q0 -12 -8.5 -20.5t-20.5 -8.5h-498q-11 0 -20 -9t-9 -20v-56q0 -11 9 -20t20 -9h322q11 0 19 -9t7 -20l-36 -292q-2 -13 -11.5 -21t-22.5 -8h-278q-11 0 -20 -9t-9 -20v-27q0 -11 9 -20t20 -9h498q11 0 20 -9t9 -20 v-350q0 -11 -9 -20t-20 -9h-906q-11 0 -20 9t-9 20zM176.5 1402.5q-4.5 8.5 4.5 19.5l215 264q22 26 56 26h220q14 0 18.5 -8t-2.5 -21l-161 -258q-7 -13 -23 -22t-30 -9h-279q-14 0 -18.5 8.5z" />
<glyph unicode="&#xca;" horiz-adv-x="1134" d="M0 29v1307q0 11 9 20t20 9h906q11 0 20 -9t9 -20v-350q0 -12 -8.5 -20.5t-20.5 -8.5h-498q-11 0 -20 -9t-9 -20v-56q0 -11 9 -20t20 -9h322q11 0 19 -9t7 -20l-36 -292q-2 -13 -11.5 -21t-22.5 -8h-278q-11 0 -20 -9t-9 -20v-27q0 -11 9 -20t20 -9h498q11 0 20 -9t9 -20 v-350q0 -11 -9 -20t-20 -9h-906q-11 0 -20 9t-9 20zM94.5 1402.5q-4.5 8.5 4.5 19.5l215 264q22 26 56 26h221q34 0 56 -26l215 -264q9 -11 4.5 -19.5t-18.5 -8.5h-280q-33 0 -59 26l-4 3q-11 11 -25 11t-24 -11l-4 -3q-26 -26 -59 -26h-280q-14 0 -18.5 8.5z" />
<glyph unicode="&#xcb;" horiz-adv-x="1134" d="M0 29v1307q0 11 9 20t20 9h906q11 0 20 -9t9 -20v-350q0 -12 -8.5 -20.5t-20.5 -8.5h-498q-11 0 -20 -9t-9 -20v-56q0 -11 9 -20t20 -9h322q11 0 19 -9t7 -20l-36 -292q-2 -13 -11.5 -21t-22.5 -8h-278q-11 0 -20 -9t-9 -20v-27q0 -11 9 -20t20 -9h498q11 0 20 -9t9 -20 v-350q0 -11 -9 -20t-20 -9h-906q-11 0 -20 9t-9 20zM73 1428v250q0 14 10.5 24t24.5 10h247q14 0 25 -10t11 -24v-250q0 -14 -11 -24t-25 -10h-247q-14 0 -24.5 10t-10.5 24zM560 1428v250q0 14 10.5 24t25.5 10h247q14 0 24 -10t10 -24v-250q0 -14 -10 -24t-24 -10h-247 q-15 0 -25.5 10t-10.5 24z" />
<glyph unicode="&#xcc;" horiz-adv-x="578" d="M-158.5 1704q4.5 8 18.5 8h220q14 0 31 -7.5t26 -18.5l215 -264q9 -11 4.5 -19.5t-18.5 -8.5h-280q-14 0 -30 9t-23 22l-160 258q-8 13 -3.5 21zM0 29q0 -11 9 -20t20 -9h350q11 0 20 9t9 20v1307q0 11 -9 20t-20 9h-350q-11 0 -20 -9t-9 -20v-1307z" />
<glyph unicode="&#xcd;" horiz-adv-x="578" d="M0 29q0 -11 9 -20t20 -9h350q11 0 20 9t9 20v1307q0 11 -9 20t-20 9h-350q-11 0 -20 -9t-9 -20v-1307zM38 1402.5q-4 8.5 5 19.5l215 264q22 26 56 26h220q14 0 18.5 -8t-2.5 -21l-161 -258q-7 -13 -23 -22t-30 -9h-280q-14 0 -18 8.5z" />
<glyph unicode="&#xce;" horiz-adv-x="578" d="M-185.5 1402.5q-4.5 8.5 4.5 19.5l215 264q22 26 56 26h221q34 0 56 -26l215 -264q9 -11 4.5 -19.5t-18.5 -8.5h-280q-33 0 -59 26l-4 3q-11 11 -25 11t-24 -11l-4 -3q-26 -26 -59 -26h-280q-14 0 -18.5 8.5zM0 29q0 -11 9 -20t20 -9h350q11 0 20 9t9 20v1307q0 11 -9 20 t-20 9h-350q-11 0 -20 -9t-9 -20v-1307z" />
<glyph unicode="&#xcf;" horiz-adv-x="578" d="M-196 1428v250q0 14 10 24t24 10h247q14 0 25 -10t11 -24v-250q0 -14 -11 -24t-25 -10h-247q-14 0 -24 10t-10 24zM0 29v1307q0 11 9 20t20 9h350q11 0 20 -9t9 -20v-1307q0 -11 -9 -20t-20 -9h-350q-11 0 -20 9t-9 20zM290 1428v250q0 14 10.5 24t25.5 10h247 q14 0 24.5 -10t10.5 -24v-250q0 -14 -10.5 -24t-24.5 -10h-247q-15 0 -25.5 10t-10.5 24z" />
<glyph unicode="&#xd0;" horiz-adv-x="1303" d="M-137 556v248q0 14 10.5 25t24.5 11h102v496q0 11 9 20t20 9h379q174 0 318 -53.5t240 -146t148.5 -217t52.5 -265.5t-52.5 -265.5t-148.5 -217.5t-240 -146.5t-318 -53.5h-379q-11 0 -20 9t-9 20v493h-102q-14 0 -24.5 10t-10.5 24zM408 437q0 -11 8.5 -19t20.5 -10 q87 4 151.5 27t100.5 61t53 84.5t17 102.5t-17 102t-53 84t-100.5 61t-151.5 26q-11 0 -20 -8.5t-9 -19.5v-88h111q14 0 24 -11t10 -25v-248q0 -14 -10 -24t-24 -10h-111v-85z" />
<glyph unicode="&#xd1;" horiz-adv-x="1336" d="M0 29v1307q0 11 9 20t20 9h350q28 0 44 -25l321 -550q3 -7 6.5 -8.5t5.5 2t2 10.5v542q0 11 9 20t20 9h350q12 0 20.5 -8.5t8.5 -20.5v-1307q0 -13 -8 -21t-21 -8h-350q-12 0 -25 7.5t-18 18.5l-321 549q-15 23 -15 -5v-541q0 -12 -8.5 -20.5t-20.5 -8.5h-350 q-12 0 -20.5 8.5t-8.5 20.5zM158.5 1457q-2.5 9 8.5 18l260 220q26 21 61 15l108 -20q13 -3 24 5l5 1q29 19 63 14l275 -51q14 -2 16.5 -11t-8.5 -18l-259 -220q-11 -9 -29.5 -13.5t-32.5 -2.5l-107 19l1 2q-13 3 -27 -5l-3 -4q-27 -18 -63 -12l-275 52q-15 2 -17.5 11z" />
<glyph unicode="&#xd2;" d="M0 683q0 193 95.5 357t259.5 259t357 95q145 0 276.5 -56.5t226.5 -151.5t151.5 -226.5t56.5 -276.5t-56.5 -277t-151.5 -227t-226.5 -151.5t-276.5 -56.5t-276.5 56.5t-227 151.5t-152 227t-56.5 277zM353.5 1704q4.5 8 18.5 8h220q14 0 31 -7.5t26 -18.5l215 -264 q9 -11 4.5 -19.5t-18.5 -8.5h-280q-14 0 -30 9t-23 22l-160 258q-8 13 -3.5 21zM408 683q0 -125 89.5 -214.5t214.5 -89.5t214 89.5t89 214.5t-89 214t-214 89t-214.5 -89t-89.5 -214z" />
<glyph unicode="&#xd3;" d="M0 683q0 193 95.5 357t259.5 259t357 95q145 0 276.5 -56.5t226.5 -151.5t151.5 -226.5t56.5 -276.5t-56.5 -277t-151.5 -227t-226.5 -151.5t-276.5 -56.5t-276.5 56.5t-227 151.5t-152 227t-56.5 277zM408 683q0 -125 89.5 -214.5t214.5 -89.5t214 89.5t89 214.5 t-89 214t-214 89t-214.5 -89t-89.5 -214zM550 1402.5q-4 8.5 5 19.5l215 264q22 26 56 26h220q14 0 18.5 -8t-2.5 -21l-161 -258q-7 -13 -23 -22t-30 -9h-280q-14 0 -18 8.5z" />
<glyph unicode="&#xd4;" d="M0 683q0 193 95.5 357t259.5 259t357 95q145 0 276.5 -56.5t226.5 -151.5t151.5 -226.5t56.5 -276.5t-56.5 -277t-151.5 -227t-226.5 -151.5t-276.5 -56.5t-276.5 56.5t-227 151.5t-152 227t-56.5 277zM321.5 1402.5q-4.5 8.5 4.5 19.5l215 264q22 26 56 26h220 q14 0 31 -7.5t26 -18.5l215 -264q9 -11 4.5 -19.5t-18.5 -8.5h-280q-33 0 -59 26l-4 3q-10 11 -24 11t-25 -11l-4 -3q-26 -26 -59 -26h-280q-14 0 -18.5 8.5zM408 683q0 -125 89.5 -214.5t214.5 -89.5t214 89.5t89 214.5t-89 214t-214 89t-214.5 -89t-89.5 -214z" />
<glyph unicode="&#xd5;" d="M0 683q0 193 95.5 357t259.5 259t357 95q145 0 276.5 -56.5t226.5 -151.5t151.5 -226.5t56.5 -276.5t-56.5 -277t-151.5 -227t-226.5 -151.5t-276.5 -56.5t-276.5 56.5t-227 151.5t-152 227t-56.5 277zM267.5 1457q-2.5 9 8.5 18l260 220q26 21 61 15l108 -20q13 -3 24 5 l5 1q29 19 63 14l275 -51q14 -2 16.5 -11t-8.5 -18l-259 -220q-11 -9 -29.5 -13.5t-32.5 -2.5l-107 19l2 2q-14 3 -28 -5l-3 -4q-27 -18 -63 -12l-275 52q-15 2 -17.5 11zM408 683q0 -125 89.5 -214.5t214.5 -89.5t214 89.5t89 214.5t-89 214t-214 89t-214.5 -89t-89.5 -214 z" />
<glyph unicode="&#xd6;" d="M0 683q0 193 95.5 357t259.5 259t357 95q145 0 276.5 -56.5t226.5 -151.5t151.5 -226.5t56.5 -276.5t-56.5 -277t-151.5 -227t-226.5 -151.5t-276.5 -56.5t-276.5 56.5t-227 151.5t-152 227t-56.5 277zM311 1428v250q0 14 10 24t24 10h247q14 0 25 -10t11 -24v-250 q0 -14 -11 -24t-25 -10h-247q-14 0 -24 10t-10 24zM408 683q0 -125 89.5 -214.5t214.5 -89.5t214 89.5t89 214.5t-89 214t-214 89t-214.5 -89t-89.5 -214zM797 1428v250q0 14 10.5 24t25.5 10h247q14 0 24 -10t10 -24v-250q0 -14 -10 -24t-24 -10h-247q-15 0 -25.5 10 t-10.5 24z" />
<glyph unicode="&#xd8;" d="M0 683q0 193 95.5 357t259.5 259t357 95h27h5h374q11 0 17.5 -8t2.5 -19l-29 -94q145 -98 229.5 -253.5t84.5 -336.5q0 -145 -56.5 -277t-151.5 -227t-226.5 -151.5t-276.5 -56.5q-19 0 -29 2q-2 -2 -5 -2h-374q-12 0 -18.5 8t-2.5 19l29 96q-144 98 -228 253t-84 336z M408 683q0 -82 41 -152l131 426q-78 -37 -125 -111t-47 -163zM841 410q78 37 126 111t48 162q0 84 -40 152z" />
<glyph unicode="&#xd9;" horiz-adv-x="1336" d="M0 553v782q0 13 9 21.5t20 8.5h350q13 0 21 -8.5t8 -21.5v-782q0 -72 51.5 -123t124.5 -51q72 0 123 51t51 123v782q0 13 9 21.5t20 8.5h350q13 0 21 -8.5t8 -21.5v-782q0 -158 -78 -292t-212 -212t-292 -78q-159 0 -293.5 78t-212.5 212t-78 292zM222.5 1704 q4.5 8 18.5 8h220q34 0 56 -26l215 -264q9 -11 5 -19.5t-18 -8.5h-280q-14 0 -30 9t-23 22l-161 258q-7 13 -2.5 21z" />
<glyph unicode="&#xda;" horiz-adv-x="1336" d="M0 553v782q0 13 9 21.5t20 8.5h350q13 0 21 -8.5t8 -21.5v-782q0 -72 51.5 -123t124.5 -51q72 0 123 51t51 123v782q0 13 9 21.5t20 8.5h350q13 0 21 -8.5t8 -21.5v-782q0 -158 -78 -292t-212 -212t-292 -78q-159 0 -293.5 78t-212.5 212t-78 292zM430.5 1402.5 q-4.5 8.5 4.5 19.5l215 264q9 11 26 18.5t31 7.5h220q14 0 18.5 -8t-3.5 -21l-160 -258q-7 -13 -23 -22t-30 -9h-280q-14 0 -18.5 8.5z" />
<glyph unicode="&#xdb;" horiz-adv-x="1336" d="M0 553v782q0 13 9 21.5t20 8.5h350q13 0 21 -8.5t8 -21.5v-782q0 -72 51.5 -123t124.5 -51q72 0 123 51t51 123v782q0 13 9 21.5t20 8.5h350q13 0 21 -8.5t8 -21.5v-782q0 -158 -78 -292t-212 -212t-292 -78q-159 0 -293.5 78t-212.5 212t-78 292zM191.5 1402.5 q-4.5 8.5 4.5 19.5l215 264q9 11 26 18.5t31 7.5h220q34 0 56 -26l215 -264q9 -11 4.5 -19.5t-18.5 -8.5h-279q-34 0 -60 26l-4 3q-10 11 -24 11t-25 -11l-3 -3q-26 -26 -60 -26h-280q-14 0 -18.5 8.5z" />
<glyph unicode="&#xdc;" horiz-adv-x="1336" d="M0 553v782q0 13 9 21.5t20 8.5h350q13 0 21 -8.5t8 -21.5v-782q0 -72 51.5 -123t124.5 -51q72 0 123 51t51 123v782q0 13 9 21.5t20 8.5h350q13 0 21 -8.5t8 -21.5v-782q0 -158 -78 -292t-212 -212t-292 -78q-159 0 -293.5 78t-212.5 212t-78 292zM179 1425v249 q0 14 10 24t24 10h248q14 0 25 -10t11 -24v-249q0 -14 -11 -24t-25 -10h-248q-14 0 -24 10t-10 24zM666 1425v249q0 14 10 24t25 10h248q14 0 24 -10t10 -24v-249q0 -14 -10 -24t-24 -10h-248q-15 0 -25 10t-10 24z" />
<glyph unicode="&#xdd;" horiz-adv-x="1302" d="M0 954v381q0 13 9 21.5t20 8.5h350q11 0 20 -8.5t9 -21.5v-381q0 -73 51.5 -124.5t124.5 -51.5q72 0 123 51.5t51 124.5v381q0 13 9 21.5t20 8.5h350q13 0 21 -8.5t8 -21.5v-381q0 -186 -105 -335t-274 -211v-379q0 -13 -8 -21t-21 -8h-350q-12 0 -20.5 8.5t-8.5 20.5 v379q-169 62 -274 211t-105 335zM422 1402.5q-4 8.5 5 19.5l215 264q22 26 56 26h220q14 0 18.5 -8t-2.5 -21l-161 -258q-7 -13 -23 -22t-30 -9h-280q-14 0 -18 8.5z" />
<glyph unicode="&#x178;" horiz-adv-x="1302" d="M0 954v381q0 13 9 21.5t20 8.5h350q11 0 20 -8.5t9 -21.5v-381q0 -73 51.5 -124.5t124.5 -51.5q72 0 123 51.5t51 124.5v381q0 13 9 21.5t20 8.5h350q13 0 21 -8.5t8 -21.5v-381q0 -186 -105 -335t-274 -211v-379q0 -13 -8 -21t-21 -8h-350q-12 0 -20.5 8.5t-8.5 20.5 v379q-169 62 -274 211t-105 335zM179 1428v250q0 14 10 24t24 10h248q14 0 25 -10t11 -24v-250q0 -14 -11 -24t-25 -10h-248q-14 0 -24 10t-10 24zM666 1428v250q0 14 10 24t25 10h248q14 0 24 -10t10 -24v-250q0 -14 -10 -24t-24 -10h-248q-15 0 -25 10t-10 24z" />
<glyph unicode="&#x2000;" horiz-adv-x="857" />
<glyph unicode="&#x2001;" horiz-adv-x="1715" />
<glyph unicode="&#x2002;" horiz-adv-x="857" />
<glyph unicode="&#x2003;" horiz-adv-x="1715" />
<glyph unicode="&#x2004;" horiz-adv-x="571" />
<glyph unicode="&#x2005;" horiz-adv-x="428" />
<glyph unicode="&#x2006;" horiz-adv-x="285" />
<glyph unicode="&#x2007;" horiz-adv-x="285" />
<glyph unicode="&#x2008;" horiz-adv-x="214" />
<glyph unicode="&#x2009;" horiz-adv-x="343" />
<glyph unicode="&#x200a;" horiz-adv-x="95" />
<glyph unicode="&#x2010;" horiz-adv-x="860" d="M0 532v248q0 14 10 25t24 11h621q14 0 24 -11t10 -25v-248q0 -14 -10 -24t-24 -10h-621q-14 0 -24 10t-10 24z" />
<glyph unicode="&#x2011;" horiz-adv-x="860" d="M0 532v248q0 14 10 25t24 11h621q14 0 24 -11t10 -25v-248q0 -14 -10 -24t-24 -10h-621q-14 0 -24 10t-10 24z" />
<glyph unicode="&#x2012;" horiz-adv-x="860" d="M0 532v248q0 14 10 25t24 11h621q14 0 24 -11t10 -25v-248q0 -14 -10 -24t-24 -10h-621q-14 0 -24 10t-10 24z" />
<glyph unicode="&#x2013;" horiz-adv-x="1195" d="M0 532v248q0 14 15 25t36 11h922q21 0 36 -11t15 -25v-248q0 -14 -15 -24t-36 -10h-922q-21 0 -36 10t-15 24z" />
<glyph unicode="&#x2014;" horiz-adv-x="2219" d="M0 532v248q0 14 29.5 25t71.5 11h1846q42 0 71.5 -11t29.5 -25v-248q0 -14 -29.5 -24t-71.5 -10h-1846q-42 0 -71.5 10t-29.5 24z" />
<glyph unicode="&#x202f;" horiz-adv-x="343" />
<glyph unicode="&#x205f;" horiz-adv-x="428" />
<glyph unicode="&#x20ac;" horiz-adv-x="1445" d="M0 507v350q0 11 9 20t20 9h87q66 223 254.5 365.5t428.5 142.5q144 0 273.5 -55t227.5 -153q8 -9 8 -20.5t-9 -18.5l-275 -220q-22 -18 -44 -2q-79 61 -181 61q-134 0 -226 -100h132q11 0 20 -9t9 -20v-350q0 -11 -9 -20t-20 -9h-130q89 -99 224 -99q104 0 181 60 q24 17 44 0l275 -222q19 -15 1 -40q-98 -98 -227 -152t-274 -54q-239 0 -427 142t-256 365h-87q-11 0 -20 9t-9 20z" />
<glyph unicode="&#x25fc;" horiz-adv-x="853" d="M0 0z" />
</font>
</defs>
</svg>
